<svg width="420" height="420" viewBox="0 0 420 420" fill="none" xmlns="http://www.w3.org/2000/svg">
<rect width="420" height="420" rx="50" fill="#FAFAE8"/>
<path d="M11.25 276.5C10.5833 273.333 10.5833 270.25 11.25 267.25H29.25C30.0833 259.75 30.6667 252.5 31 245.5C31.5 238.333 31.75 231 31.75 223.5V153.5C31.75 146 31.5 138.75 31 131.75C30.6667 124.583 30.0833 117.25 29.25 109.75H11.25C10.5833 106.583 10.5833 103.5 11.25 100.5C17.0833 100.667 22.8333 100.833 28.5 101C34.1667 101 39.8333 101 45.5 101H133V147.25C130.333 147.75 127.667 147.75 125 147.25C124.333 134.75 121.583 125.583 116.75 119.75C111.917 113.917 103 111 90 111H61.75C60.9167 118.5 60.25 125.583 59.75 132.25C59.4167 138.917 59.25 146 59.25 153.5V223.5C59.25 231 59.4167 238.083 59.75 244.75C60.25 251.417 60.9167 258.5 61.75 266H98.75C107.417 266 114.167 264.583 119 261.75C124 258.75 127.583 254.583 129.75 249.25C132.083 243.75 133.417 237.25 133.75 229.75C136.417 229.25 139.083 229.25 141.75 229.75V276H45.5C39.8333 276 34.1667 276 28.5 276C22.8333 276 17.0833 276.167 11.25 276.5ZM108.75 211C108.583 203.167 107.333 197.917 105 195.25C102.833 192.417 98.8333 191 93 191H45.5V181H93C98.8333 181 102.833 179.583 105 176.75C107.333 173.917 108.583 168.667 108.75 161C111.417 160.5 114.083 160.5 116.75 161V211C114.083 211.5 111.417 211.5 108.75 211Z" fill="#91A992"/>
<path d="M128.25 276.5C127.583 273.333 127.583 270.25 128.25 267.25H146.25C147.083 259.75 147.667 252.5 148 245.5C148.5 238.333 148.75 231 148.75 223.5V153.5C148.75 146 148.5 138.75 148 131.75C147.667 124.583 147.083 117.25 146.25 109.75H128.25C127.583 106.583 127.583 103.5 128.25 100.5C134.083 100.667 139.833 100.833 145.5 101C151.167 101 156.833 101 162.5 101H250V147.25C247.333 147.75 244.667 147.75 242 147.25C241.333 134.75 238.583 125.583 233.75 119.75C228.917 113.917 220 111 207 111H178.75C177.917 118.5 177.25 125.583 176.75 132.25C176.417 138.917 176.25 146 176.25 153.5V223.5C176.25 231 176.417 238.083 176.75 244.75C177.25 251.417 177.917 258.5 178.75 266H215.75C224.417 266 231.167 264.583 236 261.75C241 258.75 244.583 254.583 246.75 249.25C249.083 243.75 250.417 237.25 250.75 229.75C253.417 229.25 256.083 229.25 258.75 229.75V276H162.5C156.833 276 151.167 276 145.5 276C139.833 276 134.083 276.167 128.25 276.5ZM225.75 211C225.583 203.167 224.333 197.917 222 195.25C219.833 192.417 215.833 191 210 191H162.5V181H210C215.833 181 219.833 179.583 222 176.75C224.333 173.917 225.583 168.667 225.75 161C228.417 160.5 231.083 160.5 233.75 161V211C231.083 211.5 228.417 211.5 225.75 211Z" fill="#91A992"/>
<path d="M410 143.5C410.667 146.667 410.667 149.75 410 152.75H395.75C391.917 160.25 388.583 167.5 385.75 174.5C382.75 181.667 379.833 189 377 196.5L347 273.75C345.333 278.083 343.417 283 341.25 288.5C339.083 294.167 337 300.083 335 306.25C333 312.417 331.583 318.333 330.75 324C329.083 324.333 327.417 324.5 325.75 324.5C324.083 324.667 322.417 324.667 320.75 324.5C319.083 324.5 317.417 324.333 315.75 324L332.25 281.5L365.25 196.5C368.083 189 370.333 181.667 372 174.5C373.667 167.5 374.833 160.25 375.5 152.75H355.25C354.583 149.75 354.583 146.667 355.25 143.5C362.083 143.833 368.25 144 373.75 144C379.083 144 383.167 144 386 144C389 144 392.333 144 396 144C399.5 144 404.167 143.833 410 143.5ZM253.25 152.75H239.75C239.083 149.75 239.083 146.667 239.75 143.5C243.583 143.667 247.167 143.833 250.5 144C253.667 144 256.833 144 260 144C263.167 144 266.667 144 270.5 144C276.167 144 282.083 144 288.25 144C294.25 144 300.083 143.833 305.75 143.5C306.417 146.667 306.417 149.75 305.75 152.75H288.5C289.833 160.25 291.5 167.5 293.5 174.5C295.5 181.667 297.917 189 300.75 196.5L332.25 281.5L315.75 324C314.417 315.5 312.333 307.167 309.5 299C306.5 291 302.833 281 298.5 269L271.75 196.5C268.917 189 266 181.667 263 174.5C260 167.5 256.75 160.25 253.25 152.75ZM299.5 202.75H364.5V212.75H299.5V202.75Z" fill="#91A992"/>
</svg>
